<svg id="Layer_59" height="512" viewBox="0 0 512 518.4" width="512" xmlns="http://www.w3.org/2000/svg"><g><path d="m323.5 402.9.5 32.7c0 3.5 3.8 6.3 8.4 6.3l130-1c4.6 0 8.3-2.9 8.3-6.4l-.5-32.7c0-3.5-3.8-6.3-8.4-6.3l-130 1c-4.6 0-8.3 2.9-8.3 6.4z" fill="#d1d0df"/><path d="m446.1 395.7h24.5v40.6h-24.5z" fill="#b5b5c6"/><path d="m484.7 517.3h-149.2c50.3 0 94.4-27.5 118.7-76.7l29.3-.2z" fill="#f9a01e"/><path d="m454.2 440.6c-24.3 49.1-68.4 76.7-118.7 76.7h-23.1l-1.1-75.5z" fill="#ffbb26"/><path d="m492.2 277.1-4.9 2-17.6-54.9-.2-.5c-3-5.7-8.8-9.3-15.2-9.5-8.8-.2-17.1 4.2-22 11.5l-.1.2c-5 8.8-6.9 19-5.4 29 1.5 9.6 5.6 34.7 7.3 44.8-2.3 1.3-4.6 2.8-6.7 4.4l-103.1 43.1-11.9 5-6.8 2.9-3.1 1.3-27.5-65.6c.8.1 1.6.1 2.5.2 9.8.8 21.3.2 29.8-4.3 1.3-.7 2.5-1.4 3.7-2.2 4.6-3.1 8.6-7 11.8-11.6.5-.7.9-1.3 1.3-2 .3-.5.6-1.1.9-1.6 1.9-3.4 3.3-7 4.2-10.6.1-.4.2-.8.3-1.3 0 0 0-.1 0-.2 3.9-18.4-4.4-38-21.7-47.5-21.2-11.7-47.9-4-59.5 17.2-2.1-5-4.5-10.8-7.1-17v-.1c-7.8-18.8-17-40.8-21.6-51.7l77-32.2c3.3-1.4 5.3-4.6 5.1-8.2-.2-3.5-2.5-6.5-5.9-7.5-8-2.5-14.8-8-18.7-15.4-8.3-15.5-2.5-34.8 13-43.1s34.8-2.5 43.1 13c4.7 8.8 3.1 23.9 2.2 30-.2 1.6 0 3.3.6 4.8 1.9 4.6 7.3 6.9 11.9 4.9l73.1-30.6 78 186.6c2.7 6.5-.3 14-6.8 16.7z" fill="#ffbb26"/><path d="m271.5 297.9 27.8 66.4 195.2-81.6c9.6-4 14.1-15 10.1-24.6l-3.1-7.5c-8.4 4.1-17 8-25.7 11.7-64.6 27.1-134.4 39.2-204.3 35.6z" fill="#f9a01e"/><path d="m491.1 310.8-17 63.8-.1-.1-.2.8c-.6 2.5-1.7 4.8-3.1 6.9 0 0-4.9 8.1-9.6 15.1l-125 .1c-10.9-9.9-17.2-23.9-17.5-38.6l-.2-9.1 5.9-2.5 103.1-43.1c2.1-1.6 4.3-3.1 6.7-4.4-1.7-10.1-5.8-35.1-7.3-44.8 0-.1 0-.2 0-.2 1.3-.1 2.5-.2 3.8-.3 0-3.2.3-6.4 1.2-9.5.3-1.2.7-2.4 1.2-3.6.8-4.3 2.3-8.4 4.4-12.3 5.9-9.2 21.4-13 26.9-2.5z" fill="#efcdb1"/><path d="m190.5 126.4-.5-32.7c0-3.5-3.8-6.3-8.4-6.3l-130 1c-4.6 0-8.3 2.9-8.3 6.4l.5 32.7c0 3.5 3.8 6.3 8.4 6.3l130-1c4.6 0 8.3-2.8 8.3-6.4z" fill="#d1d0df"/><path d="m43.3 93h24.5v40.6h-24.5z" fill="#b5b5c6"/><path d="m29.3.1h149.2c-50.3 0-94.4 39.5-118.7 88.7l-29.4.2z" fill="#05becc"/><path d="m59.8 88.7c24.3-49.1 68.4-88.6 118.7-88.6h23.1l1.1 87.5z" fill="#01c6e1"/><path d="m305.9 278.9c-9.8 5.5-25.4 4.7-33.6 3.7-1.7-.2-3.2 1-3.4 2.7-.1.6 0 1.1.2 1.6l29.6 66.2c3 6.7 0 14.6-6.7 17.7-19.3 8.6-54.3 24.3-69.2 31-1.2.5-2.6 0-3.1-1.2-.3-.6-.3-1.4 0-2 9.2-18.7 1.5-41.4-17.2-50.6s-41.4-1.5-50.6 17.2c-4.4 9-5.1 19.3-1.9 28.8 3.6 10.7 15.8 20.4 22.6 25.1 1.4 1 1.8 2.9.8 4.3-.3.5-.8.8-1.3 1.1l-77.9 34.9-20.3-45.4c65.9-48.4 109.8-135 109.8-233.8 0-4.4-.1-8.8-.3-13.2l16.5-7.4c5.7-2.5 12.3 0 14.9 5.7 8.5 18.9 24.8 55.5 31.7 70.9.5 1.2 1.9 1.7 3.1 1.2.6-.3 1.1-.8 1.3-1.5 5.6-20.1 26.5-31.9 46.6-26.2s31.9 26.5 26.2 46.6c-2.8 9.5-9.1 17.6-17.8 22.6z" fill="#c11f2f"/><path d="m187.6 158.4-80.2 35.9-10.1-4.7c-1.9 4.1-4 8.1-6.1 11.9-.3.6-.7 1.1-1 1.7-1.8 3.1-3.9 5.8-6.1 8-6.3 6.4-13 9.3-13.1 9.3l-4.4 1.8.5 3.1.3 1.6c.1.4 6.1 36.9 8 49 1.1 7.2-.2 14.5-3.8 20.9-2.6 3.7-6.8 6-11.3 6-2 .1-3.9-1-4.9-2.7l-19.5-60.9-1.8-5.8-1.8-5.8-3.1-9.6 16.5-62c.5-1.8 1.6-4.3 2.6-5.9l.1-.2c0-.1 3-4.9 6.5-10.4l121.6-1c5.2 5.9 9 12.6 11.1 19.8z" fill="#efcdb1"/><path d="m317.8 254.8c-2.2 7.7-7.4 14.6-14.8 18.8-8.7 4.9-23.8 3.7-29.9 3-1.7-.2-3.3 0-4.8.7-1.6.7-2.8 1.8-3.7 3.1-2 1.7-3.2 4.3-3.2 6.9 0 1.2.2 2.4.7 3.5l30.2 72.3c-.7.9-1.6 1.6-2.7 2.1-16.4 7.4-44.2 19.8-61.3 27.5 2.1-8.2 1.8-16.8-.9-24.8-7.7-22.9-32.6-35.3-55.5-27.5-22.9 7.7-35.3 32.6-27.5 55.5 3.4 10 12.4 18.8 20.7 25.1l-67.8 30.3-84-187.7c-2.9-6.5 0-14 6.5-16.9l5.3-2.4 19.4 60.7.3.5c3 5.7 8.8 9.3 15.2 9.5h1c8.5-.1 16.4-4.5 21.1-11.6l.1-.2c5-8.8 6.9-19 5.4-29-1.5-9.7-5.6-34.7-7.3-44.8 8-4.5 14.7-10.9 19.7-18.6l89.8-40.2 11.7-5.2 1.1-.5c.7-.3 1.4-.5 2.2-.5 2.1 0 4 1.2 4.8 3.1 5.3 11.8 13.6 30.5 20.8 46.5v.1c4.2 10 8 19.2 10.5 25.1 1 2.3 2.9 4 5.3 4.8 4.4 1.4 9.1-1.1 10.5-5.5 2.5-8 8-14.8 15.4-18.7 15.5-8.3 34.8-2.5 43.1 13 3.3 7.2 4.1 14.9 2.6 22z" fill="#d22732"/><g><path d="m510.1 255.8-82.7-197.7-79.6 33.3c.9-9.4 1-22.7-4.1-32.3-4-7.5-10.1-13.6-17.5-17.7-21.2-11.7-47.8-4-59.5 17.2s-4 47.8 17.2 59.5l-80.1 33.5.4 1c-1.9 0-3.8.3-5.6 1-1.9-6-4.8-11.7-8.5-16.8 1-.6 2-1.4 2.9-2.2 2.2-2.2 3.4-5.1 3.4-8.2l-.4-32.7 6.8-.1c3.3 0 6-2.8 5.9-6.1l-1.1-87.5-12 .2 1 81.5-11.8.1c-1.1-.2-2.2-.3-3.3-.3l-130 1c-1.2 0-2.3.1-3.4.4l-11.8.1-1-83-12 .2 1.1 88.9c0 3.3 2.7 5.9 6 5.9h6.9l.5 32.7c0 3.7 1.9 6.9 4.8 9.1-2.3 3.7-4.1 6.5-4.4 7.1-1.7 2.6-3.4 6.3-4.2 9.3l-17.4 65.5 4.5 14.2-6.5 2.9c-12.5 5.6-18.1 20.3-12.5 32.8l88.9 198.6 83.3-37.3c1.5-.7 2.8-1.7 3.7-3.1 2.9-4.1 1.9-9.8-2.2-12.7-10.7-7.5-18.1-15.6-20.3-22.2-2.7-8-2.1-16.6 1.6-24.2 7.7-15.8 26.8-22.3 42.6-14.6s22.3 26.8 14.6 42.6c-1.1 2.3-1.2 4.9-.2 7.2 1.9 4.2 6.8 6.1 11 4.2 14.9-6.7 49.9-22.4 69.2-31 3.4-1.5 6.1-3.9 8.1-6.8l10.6-4.3c1.2 10 5 19.5 10.8 27.6-1 .6-2 1.3-2.9 2.2-2.2 2.1-3.4 5.1-3.4 8.1l.5 32.7h-6.8c-3.3.1-6 2.8-5.9 6.1l1.1 75.5 12-.2-1-69.5 11.8-.1c1 .2 2.1.3 3.3.3h.1l130-1c1.2 0 2.3-.1 3.4-.4l11.8-.1 1 71 12-.2-1.1-76.9c0-3.3-2.7-5.9-6-5.9l-6.9.1v-.1l-.5-32.7c0-3.7-1.9-6.9-4.8-9.1 2.3-3.7 4.1-6.5 4.4-7.1 1.7-2.7 3.4-6.3 4.2-9.3l17.4-65.4-6.4-20 5.8-2.4c12.5-5.3 18.5-19.8 13.2-32.4zm-443-30.3.3 1.6c.1.4 6.1 36.9 8 49 1.1 7.2-.2 14.5-3.8 20.9-2.6 3.7-6.8 6-11.3 6-2 .1-3.9-1-4.9-2.7l-19.5-60.9-1.8-5.8-1.8-5.8-3.1-9.6 16.5-62c.5-1.8 1.6-4.3 2.6-5.9l.1-.2c0-.1 3-4.9 6.5-10.4l121.6-1c5.2 5.6 9 12.3 11.1 19.5l-80.2 35.9-10.1-4.7c-1.9 4.1-4 8.1-6.1 11.9-.3.6-.7 1.1-1 1.7-1.8 3.1-3.9 5.8-6.1 8-6.3 6.4-13 9.3-13.1 9.3l-4.4 1.8zm-17.2-130.7 133.4-1.1c.2.1.5.2.7.4l.4 32c-.7.5-1.5.7-2.3.7h-.3l-129.7 1c-.9.1-1.7-.2-2.4-.7v-1.2l-.4-30.8c.2-.1.4-.2.6-.3zm239.6 270.4c-16.4 7.4-44.2 19.8-61.3 27.5 2.1-8.2 1.8-16.8-.9-24.8-7.7-22.9-32.6-35.3-55.5-27.5-22.9 7.7-35.3 32.6-27.5 55.5 3.4 10 12.4 18.8 20.7 25.1l-67.8 30.3-84-187.7c-2.9-6.5 0-14 6.5-16.9l5.3-2.4 19.4 60.7.3.5c3 5.7 8.8 9.3 15.2 9.5h1c8.5-.1 16.4-4.5 21.1-11.6l.1-.2c5-8.7 6.9-18.9 5.4-28.8 0-.1 0-.1 0-.2-1.5-9.7-5.6-34.7-7.3-44.8 8-4.5 14.7-10.9 19.7-18.6l89.8-40.2 5.9-2.6 5.8-2.6 1.1-.5c.7-.3 1.4-.5 2.2-.5 2.1 0 4 1.2 4.8 3.1 5.3 11.8 13.6 30.5 20.8 46.5v.1c4.2 10 8 19.2 10.5 25.1 1 2.3 2.9 4 5.3 4.8 4.4 1.4 9.1-1.1 10.5-5.5 2.5-8 8-14.8 15.4-18.7 15.5-8.3 34.8-2.5 43.1 13 3.7 7 4.6 14.7 3 21.9-2.2 7.7-7.4 14.6-14.8 18.8-8.7 4.9-23.8 3.7-29.9 3-1.7-.2-3.3 0-4.8.7-1.6.7-2.8 1.8-3.7 3.1-2 1.7-3.2 4.3-3.2 6.9 0 1.2.2 2.4.7 3.5l30.2 72.3c-1 1-2 1.7-3.1 2.2zm174.6 69.3-133.4 1.1c-.2-.1-.4-.2-.6-.4l-.5-32c.7-.5 1.5-.7 2.3-.7h.3l129.7-1c.8 0 1.7.2 2.4.7v1.2l.4 30.8c-.2.1-.4.2-.6.3zm4.2-61.5c-.5 1.8-1.6 4.3-2.6 5.9l-.1.2c0 .1-3 5-6.5 10.4l-121.5 1c-7.8-8.2-12.3-18.9-12.9-30.2l86.5-36.2c-1.8 3.4-3.6 7-5.3 10.6l10.9 5.1c2.2-4.7 4.6-9.3 7.1-13.7 2.8-4.9 6.5-8.7 9.9-11.4 4.9-4 9.3-5.9 9.3-5.9l4.4-1.8-.7-4.3-.1-.5c0-.1-.4-2.2-.9-5.6-1.8-10.8-5.6-34.2-7.1-43.4-1.1-7.2.2-14.6 3.8-20.9 2.6-3.7 6.8-6 11.3-6 2-.1 3.9 1 4.9 2.7l17.6 54.9 1.8 5.7 1.8 5.7 5 15.7zm23.9-95.9-4.9 2-17.6-54.9-.2-.5c-3-5.7-8.8-9.3-15.2-9.5-8.8-.2-17.1 4.2-22 11.5l-.1.2c-5 8.7-6.9 18.8-5.4 28.8v.2c1.5 9.6 5.6 34.7 7.3 44.8-2.3 1.3-4.6 2.8-6.7 4.4l-103.1 43.1-5.9 2.5-6 2.5-6.8 2.9-3.1 1.3-27.5-65.6c.8.1 1.6.1 2.5.2 9.8.8 21.3.2 29.8-4.3 1.3-.7 2.5-1.4 3.7-2.2 2.1-1.4 4.1-3 5.9-4.8 2.2-2.1 4.1-4.4 5.9-6.9.5-.7.9-1.3 1.3-2 .3-.5.6-1.1.9-1.6.8-1.5 1.5-3 2.2-4.5.8-2 1.5-4 2-6.1.1-.4.2-.8.3-1.3 0 0 0-.1 0-.2 3.9-18.4-4.4-38-21.7-47.5-21.2-11.7-47.9-4-59.5 17.2-2.1-5-4.5-10.8-7.1-17v-.1c-7.8-18.8-17-40.8-21.6-51.7l77-32.2c3.3-1.4 5.3-4.6 5.1-8.2-.2-3.5-2.5-6.5-5.9-7.5-8-2.5-14.8-8-18.7-15.4-8.3-15.5-2.5-34.8 13-43.1s34.8-2.5 43.1 13c4.7 8.8 3.1 23.9 2.2 30-.2 1.6 0 3.3.6 4.8 1.9 4.6 7.3 6.9 11.9 4.9l73.1-30.5 78 186.6c2.7 6.5-.3 14-6.8 16.7z"/><path d="m129.7 471.2h12v30.2h-12z" transform="matrix(.889 -.458 .458 .889 -207.741 116.236)"/><path d="m34.2 480.4h30.2v12h-30.2z" transform="matrix(.458 -.889 .889 .458 -405.556 307.39)"/><path d="m77.4 497.2h30.2v12h-30.2z" transform="matrix(.025 -1 1 .025 -412.777 582.977)"/><path d="m383.7 18.2h12v30.2h-12z" transform="matrix(.889 -.458 .458 .889 28.038 182.224)"/><path d="m460.9 27.3h30.2v12h-30.2z" transform="matrix(.458 -.889 .889 .458 228.31 441.172)"/><path d="m417.7 10.5h30.2v12h-30.2z" transform="matrix(.025 -1 1 .025 405.411 448.808)"/></g></g></svg>