<svg viewBox="0 0 64 64" xmlns="http://www.w3.org/2000/svg"><path d="m8 35h6v24h-6z" fill="#c2c2c2"/><path d="m14 59.5h-6a.5.5 0 0 1 -.5-.5v-24a.5.5 0 0 1 .5-.5h6a.5.5 0 0 1 .5.5v24a.5.5 0 0 1 -.5.5zm-5.5-1h5v-23h-5z" fill="#212a41"/><path d="m32 15h9a3 3 0 0 1 3 3v23a4 4 0 0 1 -4 4h-4v-27a3 3 0 0 0 -3-3z" fill="#e0c8a4"/><path d="m40 45.5h-4a.5.5 0 0 1 -.5-.5v-27a2.5 2.5 0 0 0 -2.5-2.5h-1a.5.5 0 0 1 0-1h9a3.5 3.5 0 0 1 3.5 3.5v23a4.505 4.505 0 0 1 -4.5 4.5zm-3.5-1h3.5a3.5 3.5 0 0 0 3.5-3.5v-23a2.5 2.5 0 0 0 -2.5-2.5h-5.553a3.487 3.487 0 0 1 1.053 2.5z" fill="#212a41"/><path d="m36 35h-22v24h22v-14h4a4 4 0 0 0 4-4v-6z" fill="#e0e0e0"/><path d="m36 59.5h-22a.5.5 0 0 1 -.5-.5v-24a.5.5 0 0 1 .5-.5h30a.5.5 0 0 1 .5.5v6a4.505 4.505 0 0 1 -4.5 4.5h-3.5v13.5a.5.5 0 0 1 -.5.5zm-21.5-1h21v-13.5a.5.5 0 0 1 .5-.5h4a3.5 3.5 0 0 0 3.5-3.5v-5.5h-29z" fill="#212a41"/><path d="m36 45.5a.5.5 0 0 1 -.5-.5v-4a.5.5 0 0 1 1 0v4a.5.5 0 0 1 -.5.5z" fill="#212a41"/><circle cx="33" cy="18" fill="#e0c8a4" r="3"/><path d="m33 21.5a3.5 3.5 0 1 1 3.5-3.5 3.5 3.5 0 0 1 -3.5 3.5zm0-6a2.5 2.5 0 1 0 2.5 2.5 2.5 2.5 0 0 0 -2.5-2.5z" fill="#212a41"/><path d="m27 7h-8a6 6 0 0 0 -6 6v2a3 3 0 0 0 0 6v2a6 6 0 0 0 6 6h8a6 6 0 0 0 6-6v-10a6 6 0 0 0 -6-6z" fill="#e0c8a4"/><path d="m27 29.5h-8a6.508 6.508 0 0 1 -6.5-6.5v-1.536a3.5 3.5 0 0 1 0-6.928v-1.536a6.508 6.508 0 0 1 6.5-6.5h8a6.508 6.508 0 0 1 6.5 6.5v10a6.508 6.508 0 0 1 -6.5 6.5zm-8-22a5.506 5.506 0 0 0 -5.5 5.5v2a.5.5 0 0 1 -.5.5 2.5 2.5 0 0 0 0 5 .5.5 0 0 1 .5.5v2a5.506 5.506 0 0 0 5.5 5.5h8a5.506 5.506 0 0 0 5.5-5.5v-10a5.506 5.506 0 0 0 -5.5-5.5z" fill="#212a41"/><path d="m19 27.5a4.505 4.505 0 0 1 -4.5-4.5.5.5 0 0 1 1 0 3.5 3.5 0 0 0 3.5 3.5.5.5 0 0 1 0 1z" fill="#fee6c2"/><path d="m27 27.5a.5.5 0 0 1 0-1 3.5 3.5 0 0 0 3.5-3.5v-9a.5.5 0 0 1 1 0v9a4.505 4.505 0 0 1 -4.5 4.5z" fill="#c2aa86"/><path d="m19 29h8v6h-8z" fill="#e8d2a8"/><path d="m27 35.5h-8a.5.5 0 0 1 -.5-.5v-6a.5.5 0 0 1 .5-.5h8a.5.5 0 0 1 .5.5v6a.5.5 0 0 1 -.5.5zm-7.5-1h7v-5h-7z" fill="#212a41"/><path d="m17 5h17a0 0 0 0 1 0 0v3a4 4 0 0 1 -4 4h-17a0 0 0 0 1 0 0v-3a4 4 0 0 1 4-4z" fill="#6c696f"/><path d="m30 12.5h-17a.5.5 0 0 1 -.5-.5v-3a4.505 4.505 0 0 1 4.5-4.5h17a.5.5 0 0 1 .5.5v3a4.505 4.505 0 0 1 -4.5 4.5zm-16.5-1h16.5a3.5 3.5 0 0 0 3.5-3.5v-2.5h-16.5a3.5 3.5 0 0 0 -3.5 3.5z" fill="#212a41"/><path d="m30 10.5a.5.5 0 0 1 0-1 1.5 1.5 0 0 0 1.5-1.5v-1a.5.5 0 0 1 1 0v1a2.5 2.5 0 0 1 -2.5 2.5z" fill="#4e4b51"/><path d="m13 7h3a0 0 0 0 1 0 0v4a4 4 0 0 1 -4 4h-1a0 0 0 0 1 0 0v-6a2 2 0 0 1 2-2z" fill="#4e4b51"/><path d="m12 15.5h-1a.5.5 0 0 1 -.5-.5v-6a2.5 2.5 0 0 1 2.5-2.5h3a.5.5 0 0 1 .5.5v4a4.505 4.505 0 0 1 -4.5 4.5zm-.5-1h.5a3.5 3.5 0 0 0 3.5-3.5v-3.5h-2.5a1.5 1.5 0 0 0 -1.5 1.5z" fill="#212a41"/><path d="m13 13.231a.5.5 0 0 1 -.5-.5v-3.731a.5.5 0 0 1 1 0v3.731a.5.5 0 0 1 -.5.5z" fill="#6c696f"/><path d="m13 21.5a3.5 3.5 0 0 1 -2.475-5.975 3.585 3.585 0 0 1 4.95 0 .5.5 0 0 1 -.707.707 2.562 2.562 0 0 0 -3.536 0 2.5 2.5 0 0 0 0 3.536 2.562 2.562 0 0 0 3.536 0 .5.5 0 1 1 .707.707 3.477 3.477 0 0 1 -2.475 1.025z" fill="#212a41"/><path d="m33 35h-4l2-3z" fill="#e0e0e0"/><path d="m33 35.5h-4a.5.5 0 0 1 -.416-.777l2-3a.518.518 0 0 1 .832 0l2 3a.5.5 0 0 1 -.416.777zm-3.066-1h2.132l-1.066-1.6z" fill="#212a41"/><path d="m29 35h-2v-3h4z" fill="#c2c2c2"/><path d="m29 35.5h-2a.5.5 0 0 1 -.5-.5v-3a.5.5 0 0 1 .5-.5h4a.5.5 0 0 1 .416.777l-2 3a.5.5 0 0 1 -.416.223zm-1.5-1h1.232l1.334-2h-2.566z" fill="#212a41"/><path d="m25 35h-4l2-3z" fill="#e0e0e0"/><path d="m25 35.5h-4a.5.5 0 0 1 -.416-.777l2-3a.518.518 0 0 1 .832 0l2 3a.5.5 0 0 1 -.416.777zm-3.066-1h2.132l-1.066-1.6z" fill="#212a41"/><path d="m21 35h-7l2-3h7z" fill="#c2c2c2"/><path d="m21 35.5h-7a.5.5 0 0 1 -.416-.777l2-3a.5.5 0 0 1 .416-.223h7a.5.5 0 0 1 .416.777l-2 3a.5.5 0 0 1 -.416.223zm-6.066-1h5.8l1.334-2h-5.8z" fill="#212a41"/><path d="m30 59h-6l1-18h4z" fill="#d32e5e"/><path d="m30 59.5h-6a.5.5 0 0 1 -.5-.528l1-18a.5.5 0 0 1 .5-.472h4a.5.5 0 0 1 .5.472l1 18a.5.5 0 0 1 -.5.528zm-5.472-1h4.944l-.945-17h-3.054z" fill="#212a41"/><path d="m29 35h-4l-2 3 2 3h4l2-3z" fill="#d32e5e"/><path d="m29 41.5h-4a.5.5 0 0 1 -.416-.223l-2-3a.5.5 0 0 1 0-.554l2-3a.5.5 0 0 1 .416-.223h4a.5.5 0 0 1 .416.223l2 3a.5.5 0 0 1 0 .554l-2 3a.5.5 0 0 1 -.416.223zm-3.732-1h3.464l1.668-2.5-1.667-2.5h-3.465l-1.668 2.5z" fill="#212a41"/><path d="m32 15h11a0 0 0 0 1 0 0v6a0 0 0 0 1 0 0h-11a3 3 0 0 1 -3-3 3 3 0 0 1 3-3z" fill="#6c696f"/><path d="m43 21.5h-11a3.5 3.5 0 0 1 0-7h11a.5.5 0 0 1 .5.5v6a.5.5 0 0 1 -.5.5zm-11-6a2.5 2.5 0 0 0 0 5h10.5v-5z" fill="#212a41"/><circle cx="43" cy="18" fill="#b7c0d7" r="3"/><path d="m43 21.5a3.5 3.5 0 1 1 3.5-3.5 3.5 3.5 0 0 1 -3.5 3.5zm0-6a2.5 2.5 0 1 0 2.5 2.5 2.5 2.5 0 0 0 -2.5-2.5z" fill="#212a41"/><path d="m24 15h11a0 0 0 0 1 0 0v6a0 0 0 0 1 0 0h-11a3 3 0 0 1 -3-3 3 3 0 0 1 3-3z" fill="#6c696f"/><path d="m35 21.5h-11a3.5 3.5 0 0 1 0-7h11a.5.5 0 0 1 .5.5v6a.5.5 0 0 1 -.5.5zm-11-6a2.5 2.5 0 0 0 0 5h10.5v-5z" fill="#212a41"/><circle cx="35" cy="18" fill="#b7c0d7" r="3"/><path d="m35 21.5a3.5 3.5 0 1 1 3.5-3.5 3.5 3.5 0 0 1 -3.5 3.5zm0-6a2.5 2.5 0 1 0 2.5 2.5 2.5 2.5 0 0 0 -2.5-2.5z" fill="#212a41"/><path d="m32 15h-9a3 3 0 0 0 -3 3v25h4a4 4 0 0 0 4-4v-21a3 3 0 0 1 3-3z" fill="#e0c8a4"/><path d="m24 43.5h-4a.5.5 0 0 1 -.5-.5v-25a3.5 3.5 0 0 1 3.5-3.5h9a.5.5 0 0 1 0 1h-1a2.5 2.5 0 0 0 -2.5 2.5v21a4.505 4.505 0 0 1 -4.5 4.5zm-3.5-1h3.5a3.5 3.5 0 0 0 3.5-3.5v-21a3.487 3.487 0 0 1 1.053-2.5h-5.553a2.5 2.5 0 0 0 -2.5 2.5z" fill="#212a41"/><path d="m8 35h20a0 0 0 0 1 0 0v6a4 4 0 0 1 -4 4h-16a4 4 0 0 1 -4-4v-2a4 4 0 0 1 4-4z" fill="#c2c2c2"/><path d="m24 45.5h-16a4.505 4.505 0 0 1 -4.5-4.5v-2a4.505 4.505 0 0 1 4.5-4.5h20a.5.5 0 0 1 .5.5v6a4.505 4.505 0 0 1 -4.5 4.5zm-16-10a3.5 3.5 0 0 0 -3.5 3.5v2a3.5 3.5 0 0 0 3.5 3.5h16a3.5 3.5 0 0 0 3.5-3.5v-5.5z" fill="#212a41"/><path d="m24 43.5a.5.5 0 0 1 0-1 1.5 1.5 0 0 0 1.5-1.5v-4a.5.5 0 0 1 1 0v4a2.5 2.5 0 0 1 -2.5 2.5z" fill="#a4a4a4"/><path d="m40 43.5a.5.5 0 0 1 0-1 1.5 1.5 0 0 0 1.5-1.5v-4a.5.5 0 0 1 1 0v4a2.5 2.5 0 0 1 -2.5 2.5z" fill="#c2c2c2"/><path d="m22 33.5a.5.5 0 0 1 -.5-.5v-15a.5.5 0 0 1 1 0v15a.5.5 0 0 1 -.5.5z" fill="#fee6c2"/><path d="m42 33.5a.5.5 0 0 1 -.5-.5v-10a.5.5 0 0 1 1 0v10a.5.5 0 0 1 -.5.5z" fill="#c2aa86"/><path d="m10 57.5a.5.5 0 0 1 -.5-.5v-10a.5.5 0 0 1 1 0v10a.5.5 0 0 1 -.5.5z" fill="#e0e0e0"/><path d="m16 57.5a.5.5 0 0 1 -.5-.5v-10a.5.5 0 0 1 1 0v10a.5.5 0 0 1 -.5.5z" fill="#fefefe"/><rect fill="#bed38e" height="18" rx="2" width="18" x="39" y="35"/><path d="m55 53.5h-14a2.5 2.5 0 0 1 -2.5-2.5v-14a2.5 2.5 0 0 1 2.5-2.5h14a2.5 2.5 0 0 1 2.5 2.5v14a2.5 2.5 0 0 1 -2.5 2.5zm-14-18a1.5 1.5 0 0 0 -1.5 1.5v14a1.5 1.5 0 0 0 1.5 1.5h14a1.5 1.5 0 0 0 1.5-1.5v-14a1.5 1.5 0 0 0 -1.5-1.5z" fill="#212a41"/><rect fill="#bed38e" height="18" rx="2" width="18" x="42" y="35"/><path d="m58 53.5h-14a2.5 2.5 0 0 1 -2.5-2.5v-14a2.5 2.5 0 0 1 2.5-2.5h14a2.5 2.5 0 0 1 2.5 2.5v14a2.5 2.5 0 0 1 -2.5 2.5zm-14-18a1.5 1.5 0 0 0 -1.5 1.5v14a1.5 1.5 0 0 0 1.5 1.5h14a1.5 1.5 0 0 0 1.5-1.5v-14a1.5 1.5 0 0 0 -1.5-1.5z" fill="#212a41"/><path d="m44 51.5a.5.5 0 0 1 -.5-.5v-14a.5.5 0 0 1 1 0v14a.5.5 0 0 1 -.5.5z" fill="#dcf1ac"/><path d="m58 51.5a.5.5 0 0 1 -.5-.5v-14a.5.5 0 0 1 1 0v14a.5.5 0 0 1 -.5.5z" fill="#a0b570"/><g fill="#212a41"><path d="m45 49.5a.484.484 0 0 1 -.158-.026.5.5 0 0 1 -.317-.632l2-6a.5.5 0 0 1 .613-.323l6.539 1.869 1.848-5.546a.5.5 0 0 1 .95.316l-2 6a.5.5 0 0 1 -.613.323l-6.539-1.869-1.848 5.546a.5.5 0 0 1 -.475.342z"/><path d="m57 41.5a.5.5 0 0 1 -.447-.276l-.777-1.553-1.552.776a.5.5 0 0 1 -.448-.894l2-1a.5.5 0 0 1 .671.223l1 2a.5.5 0 0 1 -.447.724z"/></g></svg>