<svg id="filled_outline" height="512" viewBox="0 0 512 512" width="512" xmlns="http://www.w3.org/2000/svg" data-name="filled outline"><path d="m80 40a16 16 0 0 1 16-16h376a16 16 0 0 1 16 16v264a16 16 0 0 1 -16 16h-392z" fill="#548aff"/><path d="m424 456 48-104h-120l-48 104z" fill="#8be0e8"/><path d="m240 456h184v16a16 16 0 0 1 -16 16h-152a16 16 0 0 1 -16-16z" fill="#548aff"/><path d="m64 280h55.03v72h-55.03z" fill="#ffceb6"/><path d="m136 240v63.02947a16.97054 16.97054 0 0 1 -16.97055 16.97053 16.97054 16.97054 0 0 1 -12-4.97056l-11.02945-11.02944v-64z" fill="#ffceb6"/><path d="m64 304-18.64337-31.07228a37.58857 37.58857 0 0 1 -5.35663-19.33914v-.00005a37.58853 37.58853 0 0 1 37.58853-37.58853h58.41147a16 16 0 0 1 16 16 16 16 0 0 1 -16 16h-24l-16 24v32z" fill="#c47220"/><path d="m272 472h-65.7484a32 32 0 0 1 -23.78542-10.59313l-30.46618-33.8513v68.44443h-128v-112a48 48 0 0 1 48-48h53.46277a56 56 0 0 1 43.34161 20.53868l55.19562 67.46132h48z" fill="#ffb401"/><path d="m272 472v-48h16l32-8 35.65057 21.39034a8.95861 8.95861 0 0 1 4.34943 7.68193 8.95859 8.95859 0 0 1 -10.71551 8.78462l-29.28449-5.85689-27.73333 20.8a16 16 0 0 1 -9.6 3.2z" fill="#ffceb6"/><path d="m408 488h-56a16 16 0 0 1 -16-16v-16h88v16a16 16 0 0 1 -16 16z" fill="#4367e0"/><path d="m192 248h48v40h-48z" fill="#ffa100"/><path d="m240 216h48v72h-48z" fill="#ffb401"/><path d="m288 176h48v112h-48z" fill="#ffc431"/><path d="m336 136h48v152h-48z" fill="#ffcc4d"/><path d="m384 104h48v184h-48z" fill="#ffd873"/><g fill="#c5dafa"><circle cx="200" cy="184" r="16"/><circle cx="280" cy="128" r="16"/><circle cx="352" cy="72" r="16"/></g><path d="m472 344h-120a8 8 0 0 0 -7.26367 4.64746l-27.61194 59.82568-30.10925 7.52686h-59.22414l-52.79493-64.52637a63.73226 63.73226 0 0 0 -47.96679-23.43017v-1.36573a25.009 25.009 0 0 0 16.97072-23.64843v-48.40552a23.99787 23.99787 0 0 0 -8-46.62378h-58.41162a45.58892 45.58892 0 0 0 -39.0918 69.044l17.50342 29.17182v24.12549a56.09167 56.09167 0 0 0 -40 53.65869v112h16v-112a40.04552 40.04552 0 0 1 40-40h53.46289a47.82286 47.82286 0 0 1 37.1499 17.60547l55.1958 67.46094a8.00057 8.00057 0 0 0 6.19141 2.93359h40v32h-57.74854a24.036 24.036 0 0 1 -17.83886-7.94434l-62.46631-69.40722-11.89258 10.70312 29.94629 33.27393v65.37451h16v-47.59668l16.52 18.35547a40.05888 40.05888 0 0 0 29.73146 13.24121h27.12476a24.0384 24.0384 0 0 0 22.62378 16h152a24.0275 24.0275 0 0 0 24-24v-14.24268l47.26367-102.40478a8 8 0 0 0 -7.26367-11.35254zm-352.9707-32a8.91273 8.91273 0 0 1 -6.34326-2.62793l-8.68604-8.68607v-26.26412l12.28125-18.42188h11.71875v47.0293a8.98108 8.98108 0 0 1 -8.9707 8.9707zm-71.0293-58.41113a29.62219 29.62219 0 0 1 29.58838-29.58887h58.41162a8 8 0 0 1 0 16h-24a7.99943 7.99943 0 0 0 -6.65625 3.5625l-16 24a7.99836 7.99836 0 0 0 -1.34375 4.4375v24h-19.4707l-16.313-27.18848a29.59563 29.59563 0 0 1 -4.2163-15.22265zm24 58.41113h20.686l8.68652 8.68652a24.86146 24.86146 0 0 0 9.65674 6.00342v1.31006h-39.02926zm208 120h8a7.97509 7.97509 0 0 0 1.94043-.23926l28.78516-7.19629 32.80908 19.68655a.96141.96141 0 0 1 .46533.82129.95771.95771 0 0 1 -1.14648.93945l-29.28467-5.85645a8.00338 8.00338 0 0 0 -6.36865 1.44434l-27.7334 20.7998a8.04886 8.04886 0 0 1 -4.8003 1.60057h-2.6665zm17.06641 43.2002 14.93359-11.2002h16v8a23.88129 23.88129 0 0 0 1.37622 8h-46.70972a24.15378 24.15378 0 0 0 14.39991-4.7998zm118.93359-3.2002a8.00917 8.00917 0 0 1 -8 8h-56a8.00917 8.00917 0 0 1 -8-8v-8h72zm2.88135-24h-51.15918a16.75917 16.75917 0 0 0 -7.95557-17.46973l-27.56653-16.54 24.91858-53.99027h102.37793z"/><path d="m472 16h-376a24.02718 24.02718 0 0 0 -24 24v152h16v-152a8.00917 8.00917 0 0 1 8-8h376a8.00917 8.00917 0 0 1 8 8v264a8.00917 8.00917 0 0 1 -8 8h-312v16h312a24.02718 24.02718 0 0 0 24-24v-264a24.02718 24.02718 0 0 0 -24-24z"/><circle cx="104" cy="48" r="8"/><circle cx="128" cy="48" r="8"/><circle cx="152" cy="48" r="8"/><path d="m432 96h-48a8.00008 8.00008 0 0 0 -8 8v24h-40a8.00008 8.00008 0 0 0 -8 8v32h-40a8.00008 8.00008 0 0 0 -8 8v32h-40a8.00008 8.00008 0 0 0 -8 8v24h-40a8.00008 8.00008 0 0 0 -8 8v32h-16v16h288v-16h-16v-176a8.00008 8.00008 0 0 0 -8-8zm-232 160h32v24h-32zm48-32h32v56h-32zm48-40h32v96h-32zm48-40h32v136h-32zm80 136h-32v-168h32z"/><path d="m144 192h33.37622a23.9978 23.9978 0 0 0 45.585-14.98169l41.60645-30.65723a23.991 23.991 0 0 0 37.55273-27.67016l36.41675-26.8335a23.98056 23.98056 0 0 0 36.08663-11.85742h49.37622v-16h-49.37622a23.9978 23.9978 0 0 0 -45.585 14.98169l-37.77454 27.834a23.98415 23.98415 0 0 0 -34.83764 25.66968l-42.96375 31.65723a23.98056 23.98056 0 0 0 -36.08663 11.8574h-33.37622zm208-128a8 8 0 1 1 -8 8 8.00917 8.00917 0 0 1 8-8zm-72 56a8 8 0 1 1 -8 8 8.00917 8.00917 0 0 1 8-8zm-80 56a8 8 0 1 1 -8 8 8.00917 8.00917 0 0 1 8-8z"/><path d="m440 64h16v16h-16z"/><path d="m112 176h16v16h-16z"/></svg>