<svg id="Layer_1" height="512" viewBox="0 0 64 64" width="512" xmlns="http://www.w3.org/2000/svg" data-name="Layer 1"><path d="m27 42h8v19h-8z" fill="#628dc4" transform="matrix(-1 0 0 -1 62 103)"/><path d="m15 38h7v23h-7z" fill="#6fa0de" transform="matrix(-1 0 0 -1 37 99)"/><path d="m3 49h7v12h-7z" fill="#7cb2f8" transform="matrix(-1 0 0 -1 13 110)"/><path d="m35 62h-8a1 1 0 0 1 -1-1v-19a1 1 0 0 1 1-1h8a1 1 0 0 1 1 1v19a1 1 0 0 1 -1 1zm-7-2h6v-17h-6z"/><path d="m22 62h-7a1 1 0 0 1 -1-1v-23a1 1 0 0 1 1-1h7a1 1 0 0 1 1 1v23a1 1 0 0 1 -1 1zm-6-2h5v-21h-5z"/><path d="m10 62h-7a1 1 0 0 1 -1-1v-12a1 1 0 0 1 1-1h7a1 1 0 0 1 1 1v12a1 1 0 0 1 -1 1zm-6-2h5v-10h-5z"/><path d="m6.78 40.62-1.56-1.24 12-15a1 1 0 0 1 1.3-.23l12.28 7.55 24.44-28.35 1.52 1.3-25 29a1 1 0 0 1 -1.28.2l-12.25-7.54z"/><path d="m56 11v-6.78l-6.8 1.36-.4-2 8-1.6a1 1 0 0 1 .83.21 1 1 0 0 1 .37.81v8z"/><path d="m18.94 12a8.26 8.26 0 0 0 .06-1 8 8 0 1 0 -1.76 5" fill="#e6eef3"/><path d="m10 3h2v3h-2z"/><path d="m3 10h3v2h-3z"/><path d="m10 16h2v3h-2z"/><path d="m11 12a1 1 0 0 1 -.71-.29l-2-2 1.42-1.42 1.29 1.3 2.29-2.3 1.42 1.42-3 3a1 1 0 0 1 -.71.29z"/><path d="m23 16v3l6-5-6-5v3h-8v4z" fill="#d98285"/><path d="m11 20a9 9 0 1 1 9-9 8.32 8.32 0 0 1 -.07 1.12l-2-.24a8.49 8.49 0 0 0 .07-.88 7 7 0 1 0 -1.54 4.38l1.54 1.24a8.92 8.92 0 0 1 -7 3.38z"/><path d="m23 20a1 1 0 0 1 -.42-.09 1 1 0 0 1 -.58-.91v-2h-7a1 1 0 0 1 -1-1v-4a1 1 0 0 1 1-1h7v-2a1 1 0 0 1 1.64-.77l6 5a1 1 0 0 1 0 1.54l-6 5a1 1 0 0 1 -.64.23zm-7-5h7a1 1 0 0 1 1 1v.86l3.44-2.86-3.44-2.86v.86a1 1 0 0 1 -1 1h-7z"/><g fill="#414d5c"><path d="m39 42h2v4h-2z"/><path d="m47 42h2v4h-2z"/><path d="m39 50h2v4h-2z"/><path d="m47 50h2v4h-2z"/><path d="m48 62h-8a1 1 0 0 1 -1-1v-3h2v2h6v-2h2v3a1 1 0 0 1 -1 1z"/><path d="m49 38h-2v-2h-6v2h-2v-3a1 1 0 0 1 1-1h8a1 1 0 0 1 1 1z"/><path d="m62 22h-2v-2h-6v2h-2v-3a1 1 0 0 1 1-1h8a1 1 0 0 1 1 1z"/><path d="m52 42h2v4h-2z"/><path d="m52 50h2v4h-2z"/><path d="m52 34h2v4h-2z"/><path d="m60 34h2v4h-2z"/><path d="m52 26h2v4h-2z"/><path d="m60 26h2v4h-2z"/><path d="m60 42h2v4h-2z"/><path d="m60 50h2v4h-2z"/><path d="m61 62h-8a1 1 0 0 1 -1-1v-3h2v2h6v-2h2v3a1 1 0 0 1 -1 1z"/></g></svg>